<?xml version="1.0" encoding="UTF-8"?>
<svg version="1.1" xmlns="http://www.w3.org/2000/svg" width="300" height="77">
<path d="M0 0 C2.98052395 2.55473482 4.46340188 5.41460439 6 9 C6 10.32 6 11.64 6 13 C4.56570999 13.67354499 3.12742943 14.33859701 1.6875 15 C0.88699219 15.37125 0.08648437 15.7425 -0.73828125 16.125 C-3 17 -3 17 -6 17 C-5.67 15.68 -5.34 14.36 -5 13 C-7.64 13.66 -10.28 14.32 -13 15 C-13 15.66 -13 16.32 -13 17 C-13.97850195 18.02104551 -14.97980427 19.0206121 -16 20 C-17.53214888 23.06429776 -17.22938548 25.6165642 -17 29 C-15.59240659 31.76441969 -15.59240659 31.76441969 -14 34 C-14 34.66 -14 35.32 -14 36 C-9.64766558 37.2139164 -5.49257093 37.58563871 -1 37 C2.59050393 34.86097638 4.46751209 32.85230907 6 29 C6.0657809 26.763344 6.0657809 26.763344 5.6875 24.5 C5.58824219 23.7471875 5.48898438 22.994375 5.38671875 22.21875 C5.01948342 20.11178366 4.54942434 18.06621118 4 16 C5.65 14.68 7.3 13.36 9 12 C14.8135681 17.5154364 14.8135681 17.5154364 15.203125 22.70703125 C15.36569579 33.47734628 15.36569579 33.47734628 12 38 C6.197853 43.802147 2.55342308 46.14308724 -5.8125 46.25 C-7.61654297 46.28867188 -7.61654297 46.28867188 -9.45703125 46.328125 C-14.2651813 45.88282775 -17.52627884 44.56022891 -20.86328125 41.02734375 C-21.34152344 40.33769531 -21.81976563 39.64804687 -22.3125 38.9375 C-22.80363281 38.24527344 -23.29476562 37.55304687 -23.80078125 36.83984375 C-27.29477164 31.47935687 -26.4922924 25.19872406 -26 19 C-24.38869422 13.56759766 -20.50568645 10.15398052 -16 7 C-11.03172631 4.68147228 -6.36806314 4.78527747 -1 5 C-0.67 3.35 -0.34 1.7 0 0 Z " fill="#2BB14B" transform="translate(73,0)"/>
<path d="M0 0 C3.485625 -0.061875 6.97125 -0.12375 10.5625 -0.1875 C12.18973999 -0.22846802 12.18973999 -0.22846802 13.84985352 -0.27026367 C19.68554627 -0.32018727 23.90164639 0.06416953 29 3 C29.99 4.485 29.99 4.485 31 6 C31.33 4.02 31.66 2.04 32 0 C33.98 0 35.96 0 38 0 C38 13.86 38 27.72 38 42 C36.02 42 34.04 42 32 42 C31.505 30.615 31.505 30.615 31 19 C29.35 20.65 27.7 22.3 26 24 C22.69428083 25.65285959 19.004622 25.1005118 15.375 25.0625 C12.61125 25.041875 9.8475 25.02125 7 25 C7 30.61 7 36.22 7 42 C4.69 42 2.38 42 0 42 C0 28.14 0 14.28 0 0 Z M7 6 C7 10.62 7 15.24 7 20 C12.84392769 20.17981316 17.49926772 20.02067717 23 18 C25.280721 16.12575284 25.280721 16.12575284 25.375 13.125 C25.25328331 9.98107028 25.25328331 9.98107028 23.4296875 7.8203125 C20.09888312 5.32488671 17.86077175 5.59774919 13.75 5.75 C10.40875 5.87375 10.40875 5.87375 7 6 Z " fill="#3F413F" transform="translate(93,4)"/>
<path d="M0 0 C3 0 6 0 9 0 C9.77214844 -0.02320313 10.54429687 -0.04640625 11.33984375 -0.0703125 C12.62568359 -0.09738281 12.62568359 -0.09738281 13.9375 -0.125 C15.21947266 -0.15980469 15.21947266 -0.15980469 16.52734375 -0.1953125 C19.15828511 0.01250277 20.74466981 0.6708727 23 2 C23.99 1.34 24.98 0.68 26 0 C28.59375 -0.30078125 28.59375 -0.30078125 31.5 -0.3125 C32.4590625 -0.32925781 33.418125 -0.34601562 34.40625 -0.36328125 C37 0 37 0 38.78125 1.33203125 C41.22550371 4.67721181 41.11791351 7.77103944 41.09765625 11.76171875 C41.09443359 12.87998047 41.09121094 13.99824219 41.08789062 15.15039062 C41.07532227 16.90125977 41.07532227 16.90125977 41.0625 18.6875 C41.05798828 19.86634766 41.05347656 21.04519531 41.04882812 22.25976562 C41.03703273 25.17322789 41.0205727 28.08658863 41 31 C39.02 31 37.04 31 35 31 C34.970271 30.02389771 34.970271 30.02389771 34.93994141 29.02807617 C34.84470701 26.08080849 34.73502182 23.13425115 34.625 20.1875 C34.5940625 19.16333984 34.563125 18.13917969 34.53125 17.08398438 C34.47324219 15.60961914 34.47324219 15.60961914 34.4140625 14.10546875 C34.3826416 13.19949951 34.3512207 12.29353027 34.31884766 11.36010742 C34.13972081 8.73474608 34.13972081 8.73474608 32 6 C29.05272465 6.10169161 29.05272465 6.10169161 26 7 C23.30890453 11.50940322 23.55767072 16.7091367 23.375 21.8125 C23.33632813 22.69615234 23.29765625 23.57980469 23.2578125 24.49023438 C23.16399216 26.65982972 23.08092674 28.82988547 23 31 C21.02 31 19.04 31 17 31 C16.505 19.12 16.505 19.12 16 7 C11.11785113 5.41074435 11.11785113 5.41074435 8 8 C7.0699111 10.7902667 6.81301231 12.76529542 6.68359375 15.66796875 C6.64169922 16.56064453 6.59980469 17.45332031 6.55664062 18.37304688 C6.49766602 19.76620117 6.49766602 19.76620117 6.4375 21.1875 C6.39431641 22.12787109 6.35113281 23.06824219 6.30664062 24.03710938 C6.20061335 26.35792854 6.09854971 28.67885325 6 31 C4.02 31 2.04 31 0 31 C0 20.77 0 10.54 0 0 Z " fill="#3F413F" transform="translate(258,15)"/>
<path d="M0 0 C19 0 19 0 25 5 C27.46473874 8.64474114 27.18945869 11.5129638 26.6171875 15.7421875 C25.60588371 19.44176719 23.72783164 21.33870084 21 24 C17.14854957 25.92572521 12.19956748 25.04883218 8 25 C8 29.95 8 34.9 8 40 C5.36 40 2.72 40 0 40 C0 26.8 0 13.6 0 0 Z M8 7 C8 10.63 8 14.26 8 18 C12.6800086 18.39909856 12.6800086 18.39909856 16.9375 16.8125 C18.38718434 14.33950907 18.42317323 12.82115488 18 10 C17.04451019 8.04374022 17.04451019 8.04374022 15 7 C11.37464024 6.7496423 11.37464024 6.7496423 8 7 Z " fill="#2BB14B" transform="translate(18,6)"/>
<path d="M0 0 C1.83884766 -0.03867188 1.83884766 -0.03867188 3.71484375 -0.078125 C7.26186522 0.26954105 8.61078145 0.72148063 11.0625 3.25 C12.09964522 6.36143567 12.26281861 8.74468096 12.37890625 12.01171875 C12.42080078 13.12998047 12.46269531 14.24824219 12.50585938 15.40039062 C12.54517578 16.56763672 12.58449219 17.73488281 12.625 18.9375 C12.66818359 20.11634766 12.71136719 21.29519531 12.75585938 22.50976562 C12.86201176 25.42305883 12.96406242 28.33643757 13.0625 31.25 C10.1875 31.375 10.1875 31.375 7.0625 31.25 C6.4025 30.59 5.7425 29.93 5.0625 29.25 C4.0725 29.91 3.0825 30.57 2.0625 31.25 C-0.71484375 31.55078125 -0.71484375 31.55078125 -3.875 31.5625 C-5.43541016 31.58763672 -5.43541016 31.58763672 -7.02734375 31.61328125 C-10.31527028 31.2028421 -11.65407238 30.62879119 -13.9375 28.25 C-15.01084143 25.26476914 -15.15374731 22.40499279 -14.9375 19.25 C-13.5 16.3125 -13.5 16.3125 -10.9375 14.25 C-5.38083654 12.36638527 0.23413982 11.76267983 6.0625 11.25 C4.7535428 8.12802522 4.7535428 8.12802522 2.0625 6.25 C-1.39550359 5.83326793 -1.39550359 5.83326793 -4.9375 6.25 C-5.9635734 7.56337396 -6.96477325 8.89664105 -7.9375 10.25 C-11.125 10.5 -11.125 10.5 -13.9375 10.25 C-13.32803254 4.7647929 -13.32803254 4.7647929 -11.5625 2.4375 C-7.97526716 -0.18393938 -4.28366818 0.05393916 0 0 Z M-0.9375 17.6875 C-2.030625 17.95433594 -3.12375 18.22117187 -4.25 18.49609375 C-6.83549093 18.98471149 -6.83549093 18.98471149 -7.9375 20.25 C-8.10416667 22.75 -8.10416667 22.75 -7.9375 25.25 C-6.72160016 26.68155899 -6.72160016 26.68155899 -3.125 26.5625 C-0.07590821 26.5133211 0.88225024 26.37016651 3.5 24.625 C5.35015829 21.8127594 5.76000921 19.57739873 6.0625 16.25 C3.73278399 16.25 1.30144486 17.13568458 -0.9375 17.6875 Z " fill="#3F413F" transform="translate(149.9375,14.75)"/>
<path d="M0 0 C3.58989903 1.44855575 5.19088894 2.52861655 7.0546875 5.91796875 C9.34182737 11.63581842 9.49619895 17.04553255 8 23 C5.88479641 27.08453108 4.266139 29.33388967 0 31 C-4.66336489 31.61701903 -9.69162566 32.06608128 -14.046875 30.0546875 C-17.2827555 27.50763305 -18.74824427 24.8282395 -20 21 C-20.69224488 14.82373724 -20.69243807 9.22034347 -17 4 C-12.5655858 -1.43573353 -6.45674515 -0.83115283 0 0 Z M-11.3125 6.4375 C-13.75024078 10.13925451 -14.07844392 13.61498506 -14 18 C-13.10988264 21.41211653 -11.9612941 23.99055043 -9 26 C-5.59324344 26.43490509 -3.6932359 26.39345822 -0.6875 24.6875 C2.10681575 21.89318425 2.22556762 18.90678877 2.375 15.125 C2.32980611 11.26092266 2.13193582 10.19402326 -0.125 6.875 C-4.27236848 4.17019447 -7.03967371 3.7814188 -11.3125 6.4375 Z " fill="#3F413F" transform="translate(225,15)"/>
<path d="M0 0 C1.47919922 0.06960937 1.47919922 0.06960937 2.98828125 0.140625 C3.98214844 0.17671875 4.97601563 0.2128125 6 0.25 C7.13888672 0.31960938 7.13888672 0.31960938 8.30078125 0.390625 C7.97078125 2.370625 7.64078125 4.350625 7.30078125 6.390625 C5.32078125 6.720625 3.34078125 7.050625 1.30078125 7.390625 C0.97078125 8.710625 0.64078125 10.030625 0.30078125 11.390625 C2.28078125 11.390625 4.26078125 11.390625 6.30078125 11.390625 C6.30078125 13.040625 6.30078125 14.690625 6.30078125 16.390625 C4.32078125 16.390625 2.34078125 16.390625 0.30078125 16.390625 C0.30078125 24.970625 0.30078125 33.550625 0.30078125 42.390625 C-1.67921875 42.390625 -3.65921875 42.390625 -5.69921875 42.390625 C-5.69921875 33.810625 -5.69921875 25.230625 -5.69921875 16.390625 C-7.01921875 16.390625 -8.33921875 16.390625 -9.69921875 16.390625 C-9.69921875 14.740625 -9.69921875 13.090625 -9.69921875 11.390625 C-8.37921875 11.390625 -7.05921875 11.390625 -5.69921875 11.390625 C-5.76109375 10.318125 -5.82296875 9.245625 -5.88671875 8.140625 C-5.65408238 3.48789769 -4.95134545 0.71654782 0 0 Z " fill="#3F413F" transform="translate(195.69921875,3.609375)"/>
<path d="M0 0 C2.64 0 5.28 0 8 0 C8 13.2 8 26.4 8 40 C5.36 40 2.72 40 0 40 C0 26.8 0 13.6 0 0 Z " fill="#2BB14B" transform="translate(1,6)"/>
<path d="M0 0 C0 3.3 0 6.6 0 10 C1.98 10 3.96 10 6 10 C6 11.65 6 13.3 6 15 C4.02 15 2.04 15 0 15 C0.33 21.6 0.66 28.2 1 35 C2.65 35 4.3 35 6 35 C6 36.98 6 38.96 6 41 C4.56510191 41.13536774 3.12652893 41.23217143 1.6875 41.3125 C0.88699219 41.37050781 0.08648437 41.42851563 -0.73828125 41.48828125 C-3 41 -3 41 -4.78125 39.15625 C-6.57942792 34.49943027 -6.31694121 30.12949906 -6.1875 25.1875 C-6.16719727 23.71893555 -6.16719727 23.71893555 -6.14648438 22.22070312 C-6.11125312 19.81323375 -6.06199265 17.40690436 -6 15 C-6.99 15 -7.98 15 -9 15 C-9 13.35 -9 11.7 -9 10 C-8.01 10 -7.02 10 -6 10 C-6.0825 8.906875 -6.165 7.81375 -6.25 6.6875 C-6 3 -6 3 -4.125 1.0625 C-2 0 -2 0 0 0 Z " fill="#3F413F" transform="translate(174,5)"/>
<path d="M0 0 C5.28 0 10.56 0 16 0 C17 4 17 4 16 7 C13.69 7 11.38 7 9 7 C7.27428639 10.01545747 6.71902341 12.3053913 6.5859375 15.765625 C6.54726562 16.65507812 6.50859375 17.54453125 6.46875 18.4609375 C6.4378125 19.38132812 6.406875 20.30171875 6.375 21.25 C6.31699219 22.65378906 6.31699219 22.65378906 6.2578125 24.0859375 C6.16375156 26.39043054 6.07810601 28.69492013 6 31 C4.02 31 2.04 31 0 31 C0 20.77 0 10.54 0 0 Z " fill="#3F413F" transform="translate(239,15)"/>
<path d="M0 0 C0.66 0 1.32 0 2 0 C2.99 0 3.98 0 5 0 C5.33 0.99 5.66 1.98 6 3 C6.804375 3.144375 7.60875 3.28875 8.4375 3.4375 C11 4 11 4 12 5 C12.14115161 7.67058851 12.04247107 10.32432238 12 13 C11.01 13 10.02 13 9 13 C9 10.69 9 8.38 9 6 C8.01 6.33 7.02 6.66 6 7 C5.67 8.98 5.34 10.96 5 13 C4.01 13 3.02 13 2 13 C1.67 10.03 1.34 7.06 1 4 C-1.31 4 -3.62 4 -6 4 C-6.33 4.99 -6.66 5.98 -7 7 C-6.01 8.485 -6.01 8.485 -5 10 C-3.02 9.67 -1.04 9.34 1 9 C1 10.32 1 11.64 1 13 C-0.45792884 13.05399736 -1.91642712 13.09279177 -3.375 13.125 C-4.18710938 13.14820312 -4.99921875 13.17140625 -5.8359375 13.1953125 C-8 13 -8 13 -10 11 C-10.55239643 4.03980504 -10.55239643 4.03980504 -8.9375 1 C-5.97014824 -0.53153639 -3.278843 -0.17884598 0 0 Z " fill="#22B258" transform="translate(168,60)"/>
<path d="M0 0 C1.99954746 -0.04254356 4.00041636 -0.04080783 6 0 C6.33 0.33 6.66 0.66 7 1 C9.20332902 1.23923546 11.4135784 1.41584783 13.625 1.5625 C15.43871094 1.68818359 15.43871094 1.68818359 17.2890625 1.81640625 C20.86673936 1.9934071 24.41866323 2.03222282 28 2 C28 3.98 28 5.96 28 8 C19 8 19 8 16.0625 7.4375 C13.04201844 6.83051578 13.04201844 6.83051578 10.25 7.5625 C9.5075 7.706875 8.765 7.85125 8 8 C7.34 7.34 6.68 6.68 6 6 C4.68 6 3.36 6 2 6 C2 6.66 2 7.32 2 8 C1.34 8 0.68 8 0 8 C0 5.36 0 2.72 0 0 Z M2 2 C2 2.66 2 3.32 2 4 C2.99 4 3.98 4 5 4 C5 3.34 5 2.68 5 2 C4.01 2 3.02 2 2 2 Z M9 4 C9 4.66 9 5.32 9 6 C9.66 6 10.32 6 11 6 C11 5.34 11 4.68 11 4 C10.34 4 9.68 4 9 4 Z " fill="#3F423F" transform="translate(94,65)"/>
<path d="M0 0 C2.01822917 0.06510417 4.03645833 0.13020833 6.0546875 0.1953125 C6.08165115 1.98689739 6.10106667 3.77859723 6.1171875 5.5703125 C6.12878906 6.56804687 6.14039063 7.56578125 6.15234375 8.59375 C6.0546875 11.1953125 6.0546875 11.1953125 5.0546875 13.1953125 C2.0846875 13.1953125 -0.8853125 13.1953125 -3.9453125 13.1953125 C-3.6153125 11.8753125 -3.2853125 10.5553125 -2.9453125 9.1953125 C-3.2753125 8.8653125 -3.6053125 8.5353125 -3.9453125 8.1953125 C-4.1328125 5.2578125 -4.1328125 5.2578125 -3.9453125 2.1953125 C-1.9453125 0.1953125 -1.9453125 0.1953125 0 0 Z M-0.9453125 3.1953125 C-0.9453125 4.5153125 -0.9453125 5.8353125 -0.9453125 7.1953125 C0.3746875 6.8653125 1.6946875 6.5353125 3.0546875 6.1953125 C3.0546875 5.2053125 3.0546875 4.2153125 3.0546875 3.1953125 C1.7346875 3.1953125 0.4146875 3.1953125 -0.9453125 3.1953125 Z " fill="#22B258" transform="translate(221.9453125,62.8046875)"/>
<path d="M0 0 C2.29141286 -0.05384521 4.58318188 -0.09272087 6.875 -0.125 C8.78925781 -0.15980469 8.78925781 -0.15980469 10.7421875 -0.1953125 C14 0 14 0 16 2 C16.26991906 4.68839385 16.08737357 7.29141936 16 10 C15.01 10 14.02 10 13 10 C13 7.69 13 5.38 13 3 C12.01 3 11.02 3 10 3 C9.67 5.31 9.34 7.62 9 10 C8.34 10 7.68 10 7 10 C6.67 7.69 6.34 5.38 6 3 C5.01 3 4.02 3 3 3 C2.67 5.31 2.34 7.62 2 10 C1.34 10 0.68 10 0 10 C0 6.7 0 3.4 0 0 Z " fill="#22B258" transform="translate(283,63)"/>
<path d="M0 0 C0.99 0 1.98 0 3 0 C3 0.66 3 1.32 3 2 C4.32 2 5.64 2 7 2 C7 1.34 7 0.68 7 0 C7.66 0 8.32 0 9 0 C9 0.66 9 1.32 9 2 C9.99 2 10.98 2 12 2 C12 2.66 12 3.32 12 4 C11.01 4 10.02 4 9 4 C9 5.65 9 7.3 9 9 C10.32 9.33 11.64 9.66 13 10 C13 10.66 13 11.32 13 12 C11.33388095 12.042721 9.66617115 12.04063832 8 12 C7 11 7 11 6.9375 7.4375 C6.958125 6.303125 6.97875 5.16875 7 4 C5.68 4 4.36 4 3 4 C3 5.65 3 7.3 3 9 C3.99 9.33 4.98 9.66 6 10 C6 10.66 6 11.32 6 12 C4.33388095 12.042721 2.66617115 12.04063832 1 12 C0 11 0 11 -0.0625 7.4375 C-0.041875 6.303125 -0.02125 5.16875 0 4 C-0.66 4 -1.32 4 -2 4 C-2 3.34 -2 2.68 -2 2 C-1.34 2 -0.68 2 0 2 C0 1.34 0 0.68 0 0 Z " fill="#22B258" transform="translate(187,61)"/>
<path d="M0 0 C0.66 0 1.32 0 2 0 C2 2.64 2 5.28 2 8 C-3.33333333 8 -8.66666667 8 -14 8 C-14 6.02 -14 4.04 -14 2 C-9.38 2 -4.76 2 0 2 C0 1.34 0 0.68 0 0 Z M-2 4 C-2 4.66 -2 5.32 -2 6 C-1.34 6 -0.68 6 0 6 C0 5.34 0 4.68 0 4 C-0.66 4 -1.32 4 -2 4 Z " fill="#3F423F" transform="translate(137,65)"/>
<path d="M0 0 C2.31 0.33 4.62 0.66 7 1 C7 3.97 7 6.94 7 10 C4.36 10 1.72 10 -1 10 C-2.15837626 5.94568308 -1.83691257 3.78187881 0 0 Z M2 6 C2.33 6.66 2.66 7.32 3 8 C3.33 7.34 3.66 6.68 4 6 C3.34 6 2.68 6 2 6 Z " fill="#22B258" transform="translate(231,63)"/>
<path d="M0 0 C2 2 2 2 2.125 5.625 C2.08375 6.73875 2.0425 7.8525 2 9 C-0.78863007 10.39431504 -2.92078868 10.25660094 -6 10 C-8 7 -8 7 -7.75 3.875 C-7.37875 2.451875 -7.37875 2.451875 -7 1 C-4.48718205 -0.25640898 -2.78302919 -0.20872719 0 0 Z M-4 3 C-4 4.32 -4 5.64 -4 7 C-2.68 6.67 -1.36 6.34 0 6 C-0.33 5.01 -0.66 4.02 -1 3 C-1.99 3 -2.98 3 -4 3 Z " fill="#22B258" transform="translate(279,63)"/>
<path d="M0 0 C2.875 0.6875 2.875 0.6875 3.875 1.6875 C4.0625 4.625 4.0625 4.625 3.875 7.6875 C1.875 9.6875 1.875 9.6875 -1.125 9.9375 C-4.125 9.6875 -4.125 9.6875 -6.125 7.6875 C-6.4375 4.6875 -6.4375 4.6875 -6.125 1.6875 C-3.125 -0.3125 -3.125 -0.3125 0 0 Z M-3.125 2.6875 C-3.125 4.0075 -3.125 5.3275 -3.125 6.6875 C-1.805 6.6875 -0.485 6.6875 0.875 6.6875 C0.875 5.3675 0.875 4.0475 0.875 2.6875 C-0.445 2.6875 -1.765 2.6875 -3.125 2.6875 Z " fill="#22B258" transform="translate(206.125,63.3125)"/>
<path d="M0 0 C0.33 0.66 0.66 1.32 1 2 C2.0725 2 3.145 2 4.25 2 C6.83333333 2 9.41666667 2 12 2 C11.34 4.31 10.68 6.62 10 9 C8.35 9.33 6.7 9.66 5 10 C5 9.34 5 8.68 5 8 C3.35 8 1.7 8 0 8 C0 5.36 0 2.72 0 0 Z M2 4 C2.33 4.66 2.66 5.32 3 6 C3.33 5.34 3.66 4.68 4 4 C3.34 4 2.68 4 2 4 Z M6 5 C5.67 5.99 5.34 6.98 5 8 C5.66 8 6.32 8 7 8 C6.67 7.01 6.34 6.02 6 5 Z " fill="#3F423F" transform="translate(143,65)"/>
<path d="M0 0 C0.66 0 1.32 0 2 0 C2.33 0.99 2.66 1.98 3 3 C5.97 3.495 5.97 3.495 9 4 C9 6.97 9 9.94 9 13 C8.34 13 7.68 13 7 13 C6.67 11.02 6.34 9.04 6 7 C5.01 6.67 4.02 6.34 3 6 C2.67 8.31 2.34 10.62 2 13 C1.34 13 0.68 13 0 13 C0 8.71 0 4.42 0 0 Z " fill="#22B258" transform="translate(247,60)"/>
<path d="M0 0 C3.625 0.375 3.625 0.375 7 1 C6.67 1.99 6.34 2.98 6 4 C4.35 3.67 2.7 3.34 1 3 C1 3.99 1 4.98 1 6 C2.65 6 4.3 6 6 6 C6 7.32 6 8.64 6 10 C3.125 10.125 3.125 10.125 0 10 C-2 8 -2 8 -2.25 5 C-2 2 -2 2 0 0 Z " fill="#22B258" transform="translate(264,63)"/>
<path d="M0 0 C1.98 0 3.96 0 6 0 C6 0.99 6 1.98 6 3 C5.01 3.495 5.01 3.495 4 4 C3.34227572 7.02934491 3.34227572 7.02934491 3 10 C2.01 10 1.02 10 0 10 C0 6.7 0 3.4 0 0 Z " fill="#22B258" transform="translate(211,63)"/>
<path d="M0 0 C1.98 0 3.96 0 6 0 C6 0.99 6 1.98 6 3 C5.01 3 4.02 3 3 3 C3 5.31 3 7.62 3 10 C2.01 10 1.02 10 0 10 C0 6.7 0 3.4 0 0 Z " fill="#22B258" transform="translate(240,63)"/>
<path d="M0 0 C0.66 0 1.32 0 2 0 C2 3.3 2 6.6 2 10 C1.34 10 0.68 10 0 10 C0 6.7 0 3.4 0 0 Z " fill="#22B258" transform="translate(182,63)"/>
<path d="M0 0 C0.99 0 1.98 0 3 0 C3 0.99 3 1.98 3 3 C1.68 3 0.36 3 -1 3 C-0.67 2.01 -0.34 1.02 0 0 Z " fill="#22B258" transform="translate(182,59)"/>
<path d="M0 0 C0.99 0 1.98 0 3 0 C3 0.99 3 1.98 3 3 C2.01 3 1.02 3 0 3 C0 2.01 0 1.02 0 0 Z " fill="#22B258" transform="translate(258,70)"/>
</svg>
