<?xml version="1.0" encoding="UTF-8"?>
<svg version="1.1" xmlns="http://www.w3.org/2000/svg" width="32" height="32">
<path d="M0 0 C0.66 0 1.32 0 2 0 C2.433125 1.134375 2.86625 2.26875 3.3125 3.4375 C3.869375 4.613125 4.42625 5.78875 5 7 C5.99 7.33 6.98 7.66 8 8 C10.6638369 12.0940849 10.66436756 16.27560849 10 21 C7.80873223 25.38253554 5.58325461 28.16669816 1 30 C-3.73747957 30.71062194 -7.05821199 30.47089401 -11.375 28.3125 C-15.43556246 24.73533783 -16.82399256 22.55892301 -17.4375 17.125 C-17.23457475 12.45771933 -15.78671773 9.74006854 -13 6 C-8.91850151 3.24942493 -5.8788629 2.65150979 -1 3 C-0.67 2.01 -0.34 1.02 0 0 Z M-9.25 11.5625 C-11.34627903 13.98220872 -11.34627903 13.98220872 -11 17.5625 C-10.2562844 20.94931297 -10.2562844 20.94931297 -8.375 23 C-4.88418213 24.46981805 -2.60851044 23.98413921 1 23 C3.16666667 21.5 3.16666667 21.5 4 19 C3.81541642 13.94892809 3.81541642 13.94892809 1 10 C-0.65 10.66 -2.3 11.32 -4 12 C-4 11.34 -4 10.68 -4 10 C-7.04586933 9.7148021 -7.04586933 9.7148021 -9.25 11.5625 Z " fill="#2AB04B" transform="translate(19,0)"/>
</svg>
